HIERARCHY
ROOT hip
{
	OFFSET	0.00  0.00  0.00 
	CHANNELS 6 Xposition Yposition Zposition Xrotation Zrotation Yrotation
	JOINT abdomen
	{
		OFFSET	0.000000 1.799998 0.000000
		CHANNELS 3 Xrotation Zrotation Yrotation
		JOINT chest
		{
			OFFSET	0.000000 4.464001 -0.360000
			CHANNELS 3 Xrotation Zrotation Yrotation
			JOINT neck
			{
				OFFSET	0.000000 5.400002 -0.144000
				CHANNELS 3 Xrotation Zrotation Yrotation
				JOINT head
				{
					OFFSET	0.000000 1.655998 0.000000
					CHANNELS 3 Xrotation Zrotation Yrotation
				}
			}
			JOINT lCollar
			{
				OFFSET	1.872000 3.528000 -0.432000
				CHANNELS 3 Yrotation Zrotation Xrotation
				JOINT lShldr
				{
					OFFSET	1.656000 0.000000 0.000000
					CHANNELS 3 Zrotation Yrotation Xrotation
					JOINT lForeArm
					{
						OFFSET	5.400000 0.000000 0.000000
						CHANNELS 3 Yrotation Zrotation Xrotation
						JOINT lHand
						{
							OFFSET	4.392000 0.000000 0.000000
							CHANNELS 3 Zrotation Yrotation Xrotation
						}
					}
				}
			}
			JOINT rCollar
			{
				OFFSET	-1.872000 3.528000 -0.432000
				CHANNELS 3 Yrotation Zrotation Xrotation
				JOINT rShldr
				{
					OFFSET	-1.656000 0.000000 0.000000
					CHANNELS 3 Zrotation Yrotation Xrotation
					JOINT rForeArm
					{
						OFFSET	-5.400000 0.000000 0.000000
						CHANNELS 3 Yrotation Zrotation Xrotation
						JOINT rHand
						{
							OFFSET	-4.392000 0.000000 0.000000
							CHANNELS 3 Zrotation Yrotation Xrotation
						}
					}
				}
			}
		}
	}
	JOINT lThigh
	{
		OFFSET	2.808000 -0.864002 0.720000
		CHANNELS 3 Xrotation Zrotation Yrotation
		JOINT lShin
		{
			OFFSET	-1.080000 -10.583999 0.000000
			CHANNELS 3 Xrotation Zrotation Yrotation
			JOINT lFoot
			{
				OFFSET	0.000000 -10.152000 -0.648000
				CHANNELS 3 Xrotation Yrotation Zrotation
				End Site
				{
					OFFSET 0.000000 -1.296000 2.448000
				}
			}
		}
	}
	JOINT rThigh
	{
		OFFSET	-2.808000 -0.864002 0.720000
		CHANNELS 3 Xrotation Zrotation Yrotation
		JOINT rShin
		{
			OFFSET	1.080000 -10.583999 0.000000
			CHANNELS 3 Xrotation Zrotation Yrotation
			JOINT rFoot
			{
				OFFSET	0.000000 -10.152000 -0.648000
				CHANNELS 3 Xrotation Yrotation Zrotation
				End Site
				{
					OFFSET 0.000000 -1.296000 2.448000
				}
			}
		}
	}
}
MOTION
Frames:     18
Frame Time: 0.033333
0.000000 23.151886 0.000000 0.000000 0.000000 0.000000 0.000000 0.000000 0.000000 0.000000 0.000000 0.000000 0.000000 0.000000 0.000000 0.000000 0.000000 0.000000 0.000000 0.000000 0.000000 0.000000 0.000000 0.000000 0.000000 0.000000 0.000000 0.000000 0.000000 0.000000 9.990230 0.000000 0.000000 0.000000 0.000000 0.000000 0.000000 0.000000 0.000000 0.000000 0.000000 0.000000 0.000000 0.000000 0.000000 0.009766 0.000000 0.000000 -0.273437 0.000000 0.000000 0.000000 -0.058594 0.000000 0.020493 0.032569 -0.011854 0.497961 0.003586 0.012903 
2.557541 8.658073 -4.709592 1.939700 0.849000 -0.090600 0.000000 0.000000 0.000000 12.226600 1.904360 -0.148244 0.000000 0.000000 0.000000 0.000000 0.000000 0.000000 -30.000000 -17.372999 -6.797200 -50.973598 -18.289600 18.709999 -42.846802 -0.000000 20.000000 6.854150 3.410730 0.000000 30.000000 17.372999 -6.797200 50.973598 18.289600 18.709999 42.846802 0.000000 20.000000 -6.854150 -3.410730 0.000000 -88.388802 26.621201 -0.467411 92.981003 -0.203401 -0.211224 -11.000000 -0.000000 -0.000000 -92.388802 -25.621201 0.467411 92.981003 0.203401 0.211224 -3.000000 10.000000 0.000000 
2.557486 8.658198 -4.709564 1.939700 0.849000 -0.090600 0.000000 0.000000 0.000000 12.226600 1.904361 -0.142950 0.000000 0.000000 0.000000 0.000000 0.000000 0.000000 -30.000000 -17.372999 -6.797200 -50.973598 -18.289600 18.709999 -42.846802 0.000000 20.000000 6.854148 3.410729 0.000000 30.000000 17.372999 -6.797200 50.973598 18.289600 18.709999 42.846802 0.000000 20.000000 -6.854148 -3.410729 0.000000 -88.388802 26.621201 -0.467411 92.981003 -0.203401 -0.211223 -11.000000 0.000000 0.000000 -92.388802 -25.621201 0.467411 92.981003 0.203401 0.211223 -3.000000 10.000000 0.000000 
2.557424 8.658340 -4.709531 1.939700 0.849000 -0.090600 0.000000 0.000000 0.000000 12.226600 1.904363 -0.136994 0.000000 0.000000 0.000000 0.000000 0.000000 0.000000 -30.000000 -17.372999 -6.797200 -50.973598 -18.289600 18.709999 -42.846802 0.000000 20.000000 6.854146 3.410728 0.000000 30.000000 17.372999 -6.797200 50.973598 18.289600 18.709999 42.846802 0.000000 20.000000 -6.854146 -3.410728 0.000000 -88.388802 26.621201 -0.467410 92.981003 -0.203401 -0.211222 -11.000000 0.000000 0.000000 -92.388802 -25.621201 0.467410 92.981003 0.203401 0.211222 -3.000000 10.000000 0.000000 
2.557362 8.658483 -4.709499 1.939700 0.849000 -0.090600 0.000000 0.000000 0.000000 12.226599 1.904364 -0.131043 0.000000 0.000000 0.000000 0.000000 0.000000 0.000000 -29.999998 -17.372999 -6.797199 -50.973595 -18.289600 18.709999 -42.846794 0.000000 19.999998 6.854142 3.410726 0.000000 29.999998 17.372999 -6.797199 50.973595 18.289600 18.709999 42.846794 0.000000 19.999998 -6.854142 -3.410726 0.000000 -88.388794 26.621197 -0.467410 92.980988 -0.203401 -0.211221 -10.999999 0.000000 0.000000 -92.388794 -25.621199 0.467410 92.980988 0.203401 0.211221 -3.000000 9.999999 0.000000 
2.557300 8.658626 -4.709466 1.939700 0.849000 -0.090600 0.000000 0.000000 0.000000 12.226597 1.904366 -0.125101 0.000000 0.000000 0.000000 0.000000 0.000000 0.000000 -29.999996 -17.372999 -6.797198 -50.973591 -18.289600 18.709999 -42.846783 0.000000 19.999996 6.854138 3.410724 0.000000 29.999996 17.372999 -6.797198 50.973591 18.289600 18.709999 42.846783 0.000000 19.999996 -6.854138 -3.410724 0.000000 -88.388786 26.621193 -0.467409 92.980972 -0.203401 -0.211220 -10.999998 0.000000 0.000000 -92.388794 -25.621197 0.467409 92.980972 0.203401 0.211220 -3.000000 9.999998 0.000000 
2.557238 8.658770 -4.709433 1.939699 0.848999 -0.090600 0.000000 0.000000 0.000000 12.226593 1.904366 -0.119171 0.000000 0.000000 0.000000 0.000000 0.000000 0.000000 -29.999989 -17.372997 -6.797197 -50.973576 -18.289598 18.709997 -42.846764 0.000000 19.999992 6.854134 3.410722 0.000000 29.999989 17.372997 -6.797197 50.973576 18.289598 18.709997 42.846764 0.000000 19.999992 -6.854134 -3.410722 0.000000 -88.388756 26.621187 -0.467409 92.980949 -0.203401 -0.211219 -10.999994 0.000000 0.000000 -92.388786 -25.621191 0.467409 92.980949 0.203401 0.211219 -2.999999 9.999996 0.000000 
2.557176 8.658911 -4.709400 1.939699 0.848999 -0.090600 0.000000 0.000000 0.000000 12.226590 1.904368 -0.113257 0.000000 0.000000 0.000000 0.000000 0.000000 0.000000 -29.999985 -17.372997 -6.797196 -50.973564 -18.289598 18.709997 -42.846748 0.000000 19.999990 6.854131 3.410720 0.000000 29.999985 17.372997 -6.797196 50.973564 18.289598 18.709997 42.846748 0.000000 19.999990 -6.854131 -3.410720 0.000000 -88.388733 26.621185 -0.467408 92.980942 -0.203401 -0.211218 -10.999991 0.000000 0.000000 -92.388786 -25.621187 0.467408 92.980942 0.203401 0.211218 -2.999999 9.999995 0.000000 
2.557113 8.659054 -4.709368 1.939698 0.848999 -0.090600 0.000000 0.000000 0.000000 12.226587 1.904369 -0.107365 0.000000 0.000000 0.000000 0.000000 0.000000 0.000000 -29.999981 -17.372997 -6.797194 -50.973553 -18.289597 18.709997 -42.846733 0.000000 19.999989 6.854127 3.410718 0.000000 29.999981 17.372997 -6.797194 50.973553 18.289597 18.709997 42.846733 0.000000 19.999989 -6.854127 -3.410718 0.000000 -88.388710 26.621181 -0.467408 92.980934 -0.203401 -0.211217 -10.999988 0.000000 0.000000 -92.388779 -25.621181 0.467408 92.980934 0.203401 0.211217 -2.999999 9.999994 0.000000 
2.557051 8.659198 -4.709335 1.939698 0.848999 -0.090600 0.000000 0.000000 0.000000 12.226583 1.904370 -0.101498 0.000000 0.000000 0.000000 0.000000 0.000000 0.000000 -29.999973 -17.372993 -6.797191 -50.973534 -18.289593 18.709995 -42.846714 0.000000 19.999981 6.854123 3.410716 0.000000 29.999973 17.372993 -6.797191 50.973534 18.289593 18.709995 42.846714 0.000000 19.999981 -6.854123 -3.410716 0.000000 -88.388672 26.621172 -0.467407 92.980904 -0.203400 -0.211216 -10.999984 0.000000 0.000000 -92.388748 -25.621172 0.467407 92.980904 0.203400 0.211216 -2.999998 9.999990 0.000000 
2.556989 8.659342 -4.709302 1.939697 0.848998 -0.090600 0.000000 0.000000 0.000000 12.226577 1.904371 -0.095660 0.000000 0.000000 0.000000 0.000000 0.000000 0.000000 -29.999958 -17.372986 -6.797187 -50.973507 -18.289585 18.709991 -42.846695 0.000000 19.999971 6.854118 3.410713 0.000000 29.999958 17.372986 -6.797187 50.973507 18.289585 18.709991 42.846695 0.000000 19.999971 -6.854118 -3.410713 0.000000 -88.388618 26.621157 -0.467406 92.980865 -0.203400 -0.211215 -10.999979 0.000000 0.000000 -92.388710 -25.621159 0.467406 92.980865 0.203400 0.211215 -2.999996 9.999986 0.000000 
2.556928 8.659486 -4.709269 1.939696 0.848998 -0.090600 0.000000 0.000000 0.000000 12.226571 1.904372 -0.089856 0.000000 0.000000 0.000000 0.000000 0.000000 0.000000 -29.999941 -17.372978 -6.797184 -50.973480 -18.289577 18.709986 -42.846676 0.000000 19.999964 6.854112 3.410711 0.000000 29.999941 17.372978 -6.797184 50.973480 18.289577 18.709986 42.846676 0.000000 19.999964 -6.854112 -3.410711 0.000000 -88.388565 26.621140 -0.467406 92.980827 -0.203400 -0.211214 -10.999973 0.000000 0.000000 -92.388664 -25.621143 0.467406 92.980827 0.203400 0.211214 -2.999994 9.999982 0.000000 
2.556868 8.659624 -4.709239 1.939696 0.848998 -0.090600 0.000000 0.000000 0.000000 12.226570 1.904373 -0.084091 0.000000 0.000000 0.000000 0.000000 0.000000 0.000000 -29.999935 -17.372976 -6.797183 -50.973476 -18.289576 18.709986 -42.846676 0.000000 19.999966 6.854110 3.410710 0.000000 29.999935 17.372976 -6.797183 50.973476 18.289576 18.709986 42.846676 0.000000 19.999966 -6.854110 -3.410710 0.000000 -88.388557 26.621134 -0.467405 92.980835 -0.203400 -0.211213 -10.999971 0.000000 0.000000 -92.388649 -25.621140 0.467405 92.980835 0.203400 0.211213 -2.999993 9.999983 0.000000 
2.556809 8.659761 -4.709208 1.939696 0.848998 -0.090600 0.000000 0.000000 0.000000 12.226570 1.904375 -0.078368 0.000000 0.000000 0.000000 0.000000 0.000000 0.000000 -29.999929 -17.372974 -6.797183 -50.973473 -18.289574 18.709986 -42.846680 0.000000 19.999968 6.854108 3.410709 0.000000 29.999929 17.372974 -6.797183 50.973473 18.289574 18.709986 42.846680 0.000000 19.999968 -6.854108 -3.410709 0.000000 -88.388557 26.621130 -0.467405 92.980843 -0.203400 -0.211212 -10.999971 0.000000 0.000000 -92.388641 -25.621140 0.467405 92.980843 0.203400 0.211212 -2.999993 9.999984 0.000000 
2.556750 8.659899 -4.709179 1.939696 0.848998 -0.090600 0.000000 0.000000 0.000000 12.226569 1.904376 -0.072695 0.000000 0.000000 0.000000 0.000000 0.000000 0.000000 -29.999922 -17.372971 -6.797183 -50.973465 -18.289572 18.709986 -42.846680 0.000000 19.999966 6.854106 3.410708 0.000000 29.999922 17.372971 -6.797183 50.973465 18.289572 18.709986 42.846680 0.000000 19.999966 -6.854106 -3.410708 0.000000 -88.388557 26.621126 -0.467404 92.980843 -0.203400 -0.211211 -10.999970 0.000000 0.000000 -92.388634 -25.621138 0.467404 92.980843 0.203400 0.211211 -2.999993 9.999983 0.000000 
2.556693 8.660033 -4.709150 1.939696 0.848998 -0.090600 0.000000 0.000000 0.000000 12.226569 1.904377 -0.067074 0.000000 0.000000 0.000000 0.000000 0.000000 0.000000 -29.999920 -17.372971 -6.797183 -50.973465 -18.289572 18.709986 -42.846684 0.000000 19.999966 6.854105 3.410707 0.000000 29.999920 17.372971 -6.797183 50.973465 18.289572 18.709986 42.846684 0.000000 19.999966 -6.854105 -3.410707 0.000000 -88.388565 26.621126 -0.467404 92.980843 -0.203400 -0.211210 -10.999970 0.000000 0.000000 -92.388634 -25.621138 0.467404 92.980843 0.203400 0.211210 -2.999993 9.999983 0.000000 
2.556636 8.660168 -4.709121 1.939696 0.848997 -0.090600 0.000000 0.000000 0.000000 12.226568 1.904379 -0.061513 0.000000 0.000000 0.000000 0.000000 0.000000 0.000000 -29.999916 -17.372969 -6.797182 -50.973457 -18.289570 18.709982 -42.846684 0.000000 19.999964 6.854103 3.410706 0.000000 29.999916 17.372969 -6.797182 50.973457 18.289570 18.709982 42.846684 0.000000 19.999964 -6.854103 -3.410706 0.000000 -88.388565 26.621124 -0.467404 92.980835 -0.203400 -0.211209 -10.999969 0.000000 0.000000 -92.388626 -25.621136 0.467404 92.980835 0.203400 0.211209 -2.999992 9.999982 0.000000 
2.556580 8.660298 -4.709092 1.939696 0.848997 -0.090600 0.000000 0.000000 0.000000 12.226568 1.904380 -0.056017 0.000000 0.000000 0.000000 0.000000 0.000000 0.000000 -29.999916 -17.372969 -6.797182 -50.973457 -18.289570 18.709980 -42.846691 0.000000 19.999964 6.854101 3.410706 0.000000 29.999916 17.372969 -6.797182 50.973457 18.289570 18.709980 42.846691 0.000000 19.999964 -6.854101 -3.410706 0.000000 -88.388573 26.621124 -0.467403 92.980835 -0.203400 -0.211209 -10.999969 0.000000 0.000000 -92.388626 -25.621136 0.467403 92.980835 0.203400 0.211209 -2.999992 9.999982 0.000000 
